# xmcd
#
# Track frame offsets:
#	150
#	18080
#	34606
#	47727
#	65774
#	83314
#	100000
#	125673
#	144590
#	160313
#	173660
#	189796
#	205679
#	223992
#	240173
#	256665
#	273015
#
# Disc length: 3908 seconds
#
# Revision: 7
# Processed by: cddbd v1.5.1PL0 Copyright (c) Steve Scherf et al.
# Submitted via: audiograbber 1.83.01
#
DISCID=d40f4211
DTITLE=2003-01 Country Radio - 2003-01 Country Radio
DYEAR=2003
DGENRE=Country
TTITLE0=Kenny Chesney - Big Star
TTITLE1=Alan Jackson - That'd Be Allright
TTITLE2=Shania Twain - Up
TTITLE3=Montgomery Gentry - Speed
TTITLE4=Martina McBride - Concrete Angel
TTITLE5=Aaron Tippin Feat. Thea Tippin - Love Like There's No Tomorrow
TTITLE6=Dixie Chicks - Traveling Soldier
TTITLE7=Tebey - We Shook Hands (Man to Man)
TTITLE8=Deana Carter - There's No Limit
TTITLE9=Tammy Cochran - Love Won't Let Me
TTITLE10=PinMonkey - I Drove All Night
TTITLE11=Diamond Rio - I Believe
TTITLE12=Jeff Bates - The Love Song
TTITLE13=Bruce Springsteen - Lonsome Day
TTITLE14=Tracy Byrd - Lately (Dreamin' About Babies)
TTITLE15=Billy Hoffman - It Just Hurts A Little
TTITLE16=Aaron Russell - That '57 Chevy
EXTD=
EXTT0=
EXTT1=
EXTT2=
EXTT3=
EXTT4=
EXTT5=
EXTT6=
EXTT7=
EXTT8=
EXTT9=
EXTT10=
EXTT11=
EXTT12=
EXTT13=
EXTT14=
EXTT15=
EXTT16=
PLAYORDER=
